{"accessors" : [{"bufferView" : 0, "byteOffset" : 0, "componentType" : 5123, "count" : 372, "type" : "SCALAR", "max" : [129], "min" : [0]}, {"bufferView" : 1, "byteOffset" : 0, "componentType" : 5126, "count" : 130, "type" : "VEC3", "max" : [1, 1, 1], "min" : [-1, -1, -1], "name" : "POSITION"}, {"bufferView" : 1, "byteOffset" : 12, "componentType" : 5126, "count" : 130, "type" : "VEC3", "max" : [1.0000044107437134, 1.0000044107437134, 1.0000044107437134], "min" : [-1.0000044107437134, -1.0000044107437134, -1.0000044107437134], "name" : "NORMAL"}, {"bufferView" : 1, "byteOffset" : 24, "componentType" : 5126, "count" : 130, "type" : "VEC2", "max" : [1, 0.9900000095367432], "min" : [0, 0], "name" : "TEXCOORD_0"}, {"bufferView" : 0, "byteOffset" : 744, "componentType" : 5123, "count" : 1242, "type" : "SCALAR", "max" : [475], "min" : [0]}, {"bufferView" : 2, "byteOffset" : 0, "componentType" : 5126, "count" : 476, "type" : "VEC3", "max" : [8.140205383300781, 18.648664474487305, 1.7847131490707397], "min" : [-1.2962440252304077, 16.787813186645508, -7.651736259460449], "name" : "POSITION"}, {"bufferView" : 2, "byteOffset" : 12, "componentType" : 5126, "count" : 476, "type" : "VEC3", "max" : [1.0000033378601074, 0.9830164313316345, 1.0000032186508179], "min" : [-1.0000033378601074, -0.9830883741378784, -1.0000033378601074], "name" : "NORMAL"}, {"bufferView" : 2, "byteOffset" : 24, "componentType" : 5126, "count" : 476, "type" : "VEC2", "max" : [3.7305567264556885, 2.978264808654785], "min" : [-4.335158348083496, -9.613445281982422], "name" : "TEXCOORD_0"}, {"bufferView" : 0, "byteOffset" : 3228, "componentType" : 5123, "count" : 1434, "type" : "SCALAR", "max" : [527], "min" : [0]}, {"bufferView" : 3, "byteOffset" : 0, "componentType" : 5126, "count" : 528, "type" : "VEC3", "max" : [5.092851161956787, 18.648664474487305, -1.2626407146453857], "min" : [1.7511098384857178, 16.787813186645508, -4.604382038116455], "name" : "POSITION"}, {"bufferView" : 3, "byteOffset" : 12, "componentType" : 5126, "count" : 528, "type" : "VEC3", "max" : [0.775701105594635, 0.9830164313316345, 0.7756717205047607], "min" : [-0.7757256031036377, -0.7377399206161499, -0.775684118270874], "name" : "NORMAL"}, {"bufferView" : 3, "byteOffset" : 24, "componentType" : 5126, "count" : 528, "type" : "VEC2", "max" : [200.50595092773438, -48.71026611328125], "min" : [-181.046142578125, -693.5625], "name" : "TEXCOORD_0"}, {"bufferView" : 0, "byteOffset" : 6096, "componentType" : 5123, "count" : 78, "type" : "SCALAR", "max" : [51], "min" : [0]}, {"bufferView" : 4, "byteOffset" : 0, "componentType" : 5126, "count" : 52, "type" : "VEC3", "max" : [7.38350248336792, 17.969757080078125, 0.9727168679237366], "min" : [-0.5901580452919006, 17.797292709350586, -6.926048755645752], "name" : "POSITION"}, {"bufferView" : 4, "byteOffset" : 12, "componentType" : 5126, "count" : 52, "type" : "VEC3", "max" : [0.3345814049243927, 0.9422768950462341, 0.33445948362350464], "min" : [-0.33445948362350464, 0.9413555264472961, -0.3344879746437073], "name" : "NORMAL"}, {"bufferView" : 4, "byteOffset" : 24, "componentType" : 5126, "count" : 52, "type" : "VEC2", "max" : [7.315544128417969, 4.019944190979004], "min" : [-7.65343713760376, -10.298696517944336], "name" : "TEXCOORD_0"}, {"bufferView" : 0, "byteOffset" : 6252, "componentType" : 5123, "count" : 6, "type" : "SCALAR", "max" : [5], "min" : [0]}, {"bufferView" : 5, "byteOffset" : 0, "componentType" : 5126, "count" : 6, "type" : "VEC3", "max" : [6.838099002838135, 17.969757080078125, -0.9245720505714417], "min" : [-0.04660080000758171, 17.817964553833008, -1.1471545696258545], "name" : "POSITION"}, {"bufferView" : 5, "byteOffset" : 12, "componentType" : 5126, "count" : 6, "type" : "VEC3", "max" : [0.3119049668312073, 0.9422768950462341, 0.20576004683971405], "min" : [-0.28934964537620544, 0.9413609504699707, 0.12869895994663239], "name" : "NORMAL"}, {"bufferView" : 5, "byteOffset" : 24, "componentType" : 5126, "count" : 6, "type" : "VEC2", "max" : [139.74407958984375, -15.425189971923828], "min" : [-29.96687126159668, -270.1687316894531], "name" : "TEXCOORD_0"}, {"bufferView" : 0, "byteOffset" : 6264, "componentType" : 5123, "count" : 37632, "type" : "SCALAR", "max" : [7088], "min" : [0]}, {"bufferView" : 6, "byteOffset" : 0, "componentType" : 5126, "count" : 7089, "type" : "VEC3", "max" : [7.724878311157227, 17.641887664794922, 1.392214059829712], "min" : [-0.834921658039093, 0.029004516080021858, -7.167585849761963], "name" : "POSITION"}, {"bufferView" : 6, "byteOffset" : 12, "componentType" : 5126, "count" : 7089, "type" : "VEC3", "max" : [0.9741902947425842, 0.2257837951183319, 0.9741970300674438], "min" : [-0.9741970300674438, -1.0000044107437134, -0.9741970300674438], "name" : "NORMAL"}, {"bufferView" : 6, "byteOffset" : 24, "componentType" : 5126, "count" : 7089, "type" : "VEC2", "max" : [198.8045654296875, 76.884765625], "min" : [-304.1290588378906, -713.7828979492188], "name" : "TEXCOORD_0"}, {"bufferView" : 0, "byteOffset" : 81528, "componentType" : 5123, "count" : 540, "type" : "SCALAR", "max" : [195], "min" : [0]}, {"bufferView" : 7, "byteOffset" : 0, "componentType" : 5126, "count" : 196, "type" : "VEC3", "max" : [6.076199531555176, 18.448936462402344, -0.3061583638191223], "min" : [0.6820458769798279, 18.233028411865234, -5.676258087158203], "name" : "POSITION"}, {"bufferView" : 7, "byteOffset" : 12, "componentType" : 5126, "count" : 196, "type" : "VEC3", "max" : [0.3217657506465912, 0.9422590732574463, 0.3119661808013916], "min" : [-0.3214271366596222, 0.9411282539367676, -0.3346172571182251], "name" : "NORMAL"}, {"bufferView" : 7, "byteOffset" : 24, "componentType" : 5126, "count" : 196, "type" : "VEC2", "max" : [178.2881622314453, 26.268238067626953], "min" : [-185.04595947265625, -313.2876281738281], "name" : "TEXCOORD_0"}, {"bufferView" : 0, "byteOffset" : 82608, "componentType" : 5123, "count" : 882, "type" : "SCALAR", "max" : [161], "min" : [0]}, {"bufferView" : 8, "byteOffset" : 0, "componentType" : 5126, "count" : 162, "type" : "VEC3", "max" : [4.780762195587158, 7.524750232696533, -6.102509021759033], "min" : [-19.012914657592773, 0, -29.89618682861328], "name" : "POSITION"}, {"bufferView" : 8, "byteOffset" : 12, "componentType" : 5126, "count" : 162, "type" : "VEC3", "max" : [0.8551234006881714, 0.4291359484195709, 0.9410490393638611], "min" : [-0.8551234006881714, -1.0000044107437134, -0.8551234006881714], "name" : "NORMAL"}, {"bufferView" : 0, "byteOffset" : 84372, "componentType" : 5123, "count" : 948, "type" : "SCALAR", "max" : [228], "min" : [0]}, {"bufferView" : 9, "byteOffset" : 0, "componentType" : 5126, "count" : 229, "type" : "VEC3", "max" : [1, 4.9122538566589355, 1], "min" : [-1.058334231376648, -1, -1], "name" : "POSITION"}, {"bufferView" : 9, "byteOffset" : 12, "componentType" : 5126, "count" : 229, "type" : "VEC3", "max" : [0.9991130232810974, 0.7293927669525146, 0.9981012940406799], "min" : [-0.999029278755188, -0.6397454142570496, -0.9982297420501709], "name" : "NORMAL"}, {"bufferView" : 9, "byteOffset" : 24, "componentType" : 5126, "count" : 229, "type" : "VEC2", "max" : [1, 0.9900000095367432], "min" : [0, 0], "name" : "TEXCOORD_0"}, {"bufferView" : 0, "byteOffset" : 86268, "componentType" : 5123, "count" : 132, "type" : "SCALAR", "max" : [37], "min" : [0]}, {"bufferView" : 10, "byteOffset" : 0, "componentType" : 5126, "count" : 38, "type" : "VEC3", "max" : [0.9362999796867371, 0.5229529738426208, 1.6228234767913818], "min" : [-1.1015969514846802, -0.2845486104488373, -1.3392935991287231], "name" : "POSITION"}, {"bufferView" : 10, "byteOffset" : 12, "componentType" : 5126, "count" : 38, "type" : "VEC3", "max" : [0.768298327922821, 0.9967958927154541, 0.8689510226249695], "min" : [-0.7799472212791443, -0.9974881410598755, -0.7704899311065674], "name" : "NORMAL"}, {"bufferView" : 10, "byteOffset" : 24, "componentType" : 5126, "count" : 38, "type" : "VEC2", "max" : [0.875, 1], "min" : [0.125, 0], "name" : "TEXCOORD_0"}, {"bufferView" : 0, "byteOffset" : 86532, "componentType" : 5123, "count" : 6240, "type" : "SCALAR", "max" : [4063], "min" : [0]}, {"bufferView" : 11, "byteOffset" : 0, "componentType" : 5126, "count" : 4064, "type" : "VEC3", "max" : [1, 1.1435837745666504, 1], "min" : [-1, -1, -1], "name" : "POSITION"}, {"bufferView" : 11, "byteOffset" : 12, "componentType" : 5126, "count" : 4064, "type" : "VEC3", "max" : [0.9951891303062439, 0.9998371005058289, 0.9951890110969543], "min" : [-0.9951891303062439, -3.750839994154376E-08, -0.9951890707015991], "name" : "NORMAL"}, {"bufferView" : 11, "byteOffset" : 24, "componentType" : 5126, "count" : 4064, "type" : "VEC2", "max" : [1, 0.5], "min" : [0, -1.1920928955078125E-07], "name" : "TEXCOORD_0"}], "asset" : {"generator" : "Aspose.3D 21.4", "version" : "2.0"}, "buffers" : [{"uri" : "buffer.bin", "byteLength" : 1676196}], "bufferViews" : [{"buffer" : 0, "byteOffset" : 0, "byteLength" : 99012, "target" : 34963}, {"buffer" : 0, "byteOffset" : 99016, "byteLength" : 11904, "byteStride" : 32, "target" : 34962}, {"buffer" : 0, "byteOffset" : 110924, "byteLength" : 39744, "byteStride" : 32, "target" : 34962}, {"buffer" : 0, "byteOffset" : 150672, "byteLength" : 45888, "byteStride" : 32, "target" : 34962}, {"buffer" : 0, "byteOffset" : 196564, "byteLength" : 2496, "byteStride" : 32, "target" : 34962}, {"buffer" : 0, "byteOffset" : 199064, "byteLength" : 192, "byteStride" : 32, "target" : 34962}, {"buffer" : 0, "byteOffset" : 199260, "byteLength" : 1204224, "byteStride" : 32, "target" : 34962}, {"buffer" : 0, "byteOffset" : 1403488, "byteLength" : 17280, "byteStride" : 32, "target" : 34962}, {"buffer" : 0, "byteOffset" : 1420772, "byteLength" : 21168, "byteStride" : 24, "target" : 34962}, {"buffer" : 0, "byteOffset" : 1441944, "byteLength" : 30336, "byteStride" : 32, "target" : 34962}, {"buffer" : 0, "byteOffset" : 1472284, "byteLength" : 4224, "byteStride" : 32, "target" : 34962}, {"buffer" : 0, "byteOffset" : 1476512, "byteLength" : 199680, "byteStride" : 32, "target" : 34962}], "materials" : [{"pbrMetallicRoughness" : {"baseColorFactor" : [0, 0, 0, 0.8700000047683716], "metallicFactor" : 0, "roughnessFactor" : 0.5}, "emissiveFactor" : [0, 0, 0], "alphaMode" : "BLEND", "doubleSided" : true}, {"pbrMetallicRoughness" : {"baseColorFactor" : [1, 1, 1, 1], "metallicFactor" : 1, "roughnessFactor" : 1}, "emissiveFactor" : [0.2903764065256276, 0.8104962909418845, 0.9346626891558429], "alphaMode" : "OPAQUE", "doubleSided" : true}, {"pbrMetallicRoughness" : {"baseColorFactor" : [1, 1, 1, 1], "metallicFactor" : 1, "roughnessFactor" : 1}, "emissiveFactor" : [0.2903764065256276, 0.8104962909418845, 0.9346626891558429], "alphaMode" : "OPAQUE", "doubleSided" : true}, {"pbrMetallicRoughness" : {"baseColorFactor" : [1, 1, 1, 1], "metallicFactor" : 1, "roughnessFactor" : 1}, "emissiveFactor" : [0.2903764065256276, 0.8104962909418845, 0.9346626891558429], "alphaMode" : "OPAQUE", "doubleSided" : true}, {"pbrMetallicRoughness" : {"baseColorFactor" : [1, 1, 1, 1], "metallicFactor" : 1, "roughnessFactor" : 1}, "emissiveFactor" : [0.2903764065256276, 0.8104962909418845, 0.9346626891558429], "alphaMode" : "OPAQUE", "doubleSided" : true}, {"pbrMetallicRoughness" : {"baseColorFactor" : [1, 1, 1, 1], "metallicFactor" : 1, "roughnessFactor" : 1}, "emissiveFactor" : [0.2903764065256276, 0.8104962909418845, 0.9346626891558429], "alphaMode" : "OPAQUE", "doubleSided" : true}, {"pbrMetallicRoughness" : {"baseColorFactor" : [1, 1, 1, 1], "metallicFactor" : 1, "roughnessFactor" : 1}, "emissiveFactor" : [0.2903764065256276, 0.8104962909418845, 0.9346626891558429], "alphaMode" : "OPAQUE", "doubleSided" : true}, {"pbrMetallicRoughness" : {"baseColorFactor" : [1, 1, 1, 1], "metallicFactor" : 1, "roughnessFactor" : 1}, "emissiveFactor" : [0.2903764065256276, 0.8104962909418845, 0.9346626891558429], "alphaMode" : "OPAQUE", "doubleSided" : true}, {"pbrMetallicRoughness" : {"baseColorFactor" : [1, 1, 1, 1], "metallicFactor" : 1, "roughnessFactor" : 1}, "emissiveFactor" : [0.2903764065256276, 0.8104962909418845, 0.9346626891558429], "alphaMode" : "OPAQUE", "doubleSided" : true}, {"pbrMetallicRoughness" : {"baseColorFactor" : [1, 1, 1, 1], "metallicFactor" : 1, "roughnessFactor" : 1}, "emissiveFactor" : [0.2903764065256276, 0.8104962909418845, 0.9346626891558429], "alphaMode" : "OPAQUE", "doubleSided" : true}, {"pbrMetallicRoughness" : {"baseColorFactor" : [1, 1, 1, 1], "metallicFactor" : 1, "roughnessFactor" : 1}, "emissiveFactor" : [0.2903764065256276, 0.8104962909418845, 0.9346626891558429], "alphaMode" : "OPAQUE", "doubleSided" : true}], "meshes" : [{"primitives" : [{"attributes" : {"POSITION" : 1, "NORMAL" : 2, "TEXCOORD_0" : 3}, "indices" : 0, "material" : 0, "mode" : 4}]}, {"primitives" : [{"attributes" : {"POSITION" : 5, "NORMAL" : 6, "TEXCOORD_0" : 7}, "indices" : 4, "material" : 1, "mode" : 4}, {"attributes" : {"POSITION" : 9, "NORMAL" : 10, "TEXCOORD_0" : 11}, "indices" : 8, "material" : 2, "mode" : 4}, {"attributes" : {"POSITION" : 13, "NORMAL" : 14, "TEXCOORD_0" : 15}, "indices" : 12, "material" : 3, "mode" : 4}, {"attributes" : {"POSITION" : 17, "NORMAL" : 18, "TEXCOORD_0" : 19}, "indices" : 16, "material" : 4, "mode" : 4}, {"attributes" : {"POSITION" : 21, "NORMAL" : 22, "TEXCOORD_0" : 23}, "indices" : 20, "material" : 5, "mode" : 4}, {"attributes" : {"POSITION" : 25, "NORMAL" : 26, "TEXCOORD_0" : 27}, "indices" : 24, "material" : 6, "mode" : 4}]}, {"primitives" : [{"attributes" : {"POSITION" : 29, "NORMAL" : 30}, "indices" : 28, "material" : 7, "mode" : 4}]}, {"primitives" : [{"attributes" : {"POSITION" : 32, "NORMAL" : 33, "TEXCOORD_0" : 34}, "indices" : 31, "material" : 8, "mode" : 4}]}, {"primitives" : [{"attributes" : {"POSITION" : 36, "NORMAL" : 37, "TEXCOORD_0" : 38}, "indices" : 35, "material" : 9, "mode" : 4}]}, {"primitives" : [{"attributes" : {"POSITION" : 36, "NORMAL" : 37, "TEXCOORD_0" : 38}, "indices" : 35, "material" : 10, "mode" : 4}]}, {"primitives" : [{"attributes" : {"POSITION" : 40, "NORMAL" : 41, "TEXCOORD_0" : 42}, "indices" : 39, "mode" : 4}]}], "nodes" : [{"matrix" : [1, 0, 0, 0, 0, 0.35539597272872925, 0, 0, 0, 0, 1, 0, 0, 0.06691303104162216, 0, 1], "mesh" : 0, "name" : "Cylinder"}, {"matrix" : [0.15038937330245972, 0, 0, 0, 0, 0.15038937330245972, 0, 0, 0, 0, 0.15038937330245972, 0, -0.5128628015518188, 0.42196035385131836, 0.4262494742870331, 1], "mesh" : 1, "name" : "Sketchup"}, {"matrix" : [0.021601928398013115, 0, 0, 0, 0, 0.016061585396528244, 0, 0, 0, 0, 0.02180834673345089, 0, 0.15422511100769043, 3.2187395095825195, 0.3820578455924988, 1], "mesh" : 2, "name" : "Dome"}, {"matrix" : [0.10219932347536087, 0, 0, 0, 0, 0.10219932347536087, 0, 0, 0, 0, 0.10219932347536087, 0, 0, 0.5144850015640259, 0, 1], "mesh" : 3, "name" : "Cylinder.001"}, {"matrix" : [3.0054898045340417E-09, -0.13610320257972217, 0.02389795295389841, 0, 0.04448693895002178, 9.675774683058156E-10, -3.2549059802408437E-10, 0, -1.0110391218038184E-09, 0.02389795295389841, 0.13610319398101905, 0, -0.012011690065264702, 0.9533708691596985, 0.2034720629453659, 1], "mesh" : 4, "name" : "Cube"}, {"matrix" : [0.004108349158685055, -0.13610319195477694, -0.02354216675587543, 0, -0.04382462340299617, 4.392374232608683E-09, -0.007647863661604692, 0, 0.023397852237821724, 0.023897952471971278, -0.13407691392694135, 0, 0.03434356302022934, 0.955946147441864, -0.1905476599931717, 1], "mesh" : 5, "name" : "Cube.001"}, {"matrix" : [-1, 3.2584136988589307E-07, 0, 0, -6.124362279184121E-07, -1.8795533180236816, 0, 0, 0, 0, 1, 0, 0.022642672061920166, 2.1123785972595215, -0.021773887798190117, 1], "mesh" : 6, "name" : "Cylinder.002"}], "scene" : 0, "scenes" : [{"nodes" : [0, 1, 2, 3, 4, 5, 6]}]}