{"accessors" : [{"bufferView" : 0, "byteOffset" : 0, "componentType" : 5123, "count" : 17280, "type" : "SCALAR", "max" : [2896], "min" : [0]}, {"bufferView" : 1, "byteOffset" : 0, "componentType" : 5126, "count" : 2897, "type" : "VEC3", "max" : [25.88431167602539, 49.30792999267578, 10.047506332397461], "min" : [-25.968788146972656, -0.26679185032844543, -2.032233476638794], "name" : "POSITION"}, {"bufferView" : 1, "byteOffset" : 12, "componentType" : 5126, "count" : 2897, "type" : "VEC3", "max" : [0.9999884366989136, 0.9872139692306519, 0.9999958872795105], "min" : [-0.9997738599777222, -0.9986440539360046, -0.9999288320541382], "name" : "NORMAL"}, {"bufferView" : 1, "byteOffset" : 24, "componentType" : 5126, "count" : 2897, "type" : "VEC2", "max" : [0.9995003938674927, 0.875958263874054], "min" : [0.0004994962946511805, 0.010141253471374512], "name" : "TEXCOORD_0"}], "asset" : {"generator" : "Aspose.3D 21.5.2", "version" : "2.0"}, "buffers" : [{"uri" : "data:application/octet-stream;base64,", "byteLength" : 587528}], "bufferViews" : [{"buffer" : 0, "byteOffset" : 0, "byteLength" : 34560, "target" : 34963}, {"buffer" : 0, "byteOffset" : 34564, "byteLength" : 552960, "byteStride" : 32, "target" : 34962}], "images" : [{"uri" : "data:image/jpeg;base64,"}], "materials" : [{"pbrMetallicRoughness" : {"baseColorFactor" : [1, 1, 1, 1], "baseColorTexture" : {"index" : 0, "texCoord" : 0}, "metallicFactor" : 1, "roughnessFactor" : 0.858578622341156}, "emissiveFactor" : [0, 0, 0], "alphaMode" : "OPAQUE", "doubleSided" : true}], "meshes" : [{"primitives" : [{"attributes" : {"POSITION" : 1, "NORMAL" : 2, "TEXCOORD_0" : 3}, "indices" : 0, "material" : 0, "mode" : 4}]}], "nodes" : [{"matrix" : [0, 0, 0, 0, 0, 0, 0, 0, 0, 0, 0, 0, 0, 0, 0, 1], "mesh" : 0, "name" : "seeding"}], "samplers" : [{"magFilter" : 9729, "minFilter" : 9986, "wrapS" : 10497, "wrapT" : 10497}], "scene" : 0, "scenes" : [{"nodes" : [0]}], "textures" : [{"sampler" : 0, "source" : 0}]}